HIERARCHY
ROOT Hips
{
    OFFSET 0.000000 0.000000 0.000000
    CHANNELS 6 Xposition Yposition Zposition Zrotation Xrotation Yrotation
    JOINT Spine
    {
        OFFSET -0.000000 14.077055 0.000000
        CHANNELS 3 Zrotation Xrotation Yrotation
        JOINT Spine1
        {
            OFFSET -0.000000 39.610336 0.000000
            CHANNELS 3 Zrotation Xrotation Yrotation
            JOINT Neck
            {
                OFFSET -0.000000 39.447666 3.586151
                CHANNELS 3 Zrotation Xrotation Yrotation
                JOINT Head
                {
                    OFFSET -0.000000 24.033997 -3.433428
                    CHANNELS 3 Zrotation Xrotation Yrotation
                    End Site
                    {
                        OFFSET -0.000000 34.334282 0.000000
                    }
                }
            }
            JOINT LeftShoulder
            {
                OFFSET 6.845375 37.474274 -0.251068
                CHANNELS 3 Zrotation Xrotation Yrotation
                JOINT LeftArm
                {
                    OFFSET 16.779110 0.000000 0.000000
                    CHANNELS 3 Zrotation Xrotation Yrotation
                    JOINT LeftForeArm
                    {
                        OFFSET 54.865921 0.000000 0.000000
                        CHANNELS 3 Zrotation Xrotation Yrotation
                        JOINT LeftHand
                        {
                            OFFSET 44.512962 0.000000 0.000000
                            CHANNELS 3 Zrotation Xrotation Yrotation
                            End Site
                            {
                                OFFSET 25.750711 0.000000 0.000000
                            }
                        }
                    }
                }
            }
            JOINT RightShoulder
            {
                OFFSET -6.886993 37.474274 -0.251068
                CHANNELS 3 Zrotation Xrotation Yrotation
                JOINT RightArm
                {
                    OFFSET -16.779110 0.000000 0.000000
                    CHANNELS 3 Zrotation Xrotation Yrotation
                    JOINT RightForeArm
                    {
                        OFFSET -54.865921 0.000000 0.000000
                        CHANNELS 3 Zrotation Xrotation Yrotation
                        JOINT RightHand
                        {
                            OFFSET -44.512962 0.000000 0.000000
                            CHANNELS 3 Zrotation Xrotation Yrotation
                            End Site
                            {
                                OFFSET -25.750711 0.000000 0.000000
                            }
                        }
                    }
                }
            }
        }
    }
    JOINT LeftUpLeg
    {
        OFFSET 17.167141 0.000000 0.000000
        CHANNELS 3 Zrotation Xrotation Yrotation
        JOINT LeftLeg
        {
            OFFSET -0.000000 -85.710365 0.000000
            CHANNELS 3 Zrotation Xrotation Yrotation
            JOINT LeftFoot
            {
                OFFSET -0.000000 -63.982941 0.000000
                CHANNELS 3 Zrotation Xrotation Yrotation
                JOINT LeftToeBase
                {
                    OFFSET -0.000000 -11.158641 25.750711
                    CHANNELS 3 Zrotation Xrotation Yrotation
                    End Site
                    {
                        OFFSET -0.000000 0.000000 6.866856
                    }
                }
            }
        }
    }
    JOINT RightUpLeg
    {
        OFFSET -17.167141 0.000000 0.000000
        CHANNELS 3 Zrotation Xrotation Yrotation
        JOINT RightLeg
        {
            OFFSET -0.000000 -85.710365 0.000000
            CHANNELS 3 Zrotation Xrotation Yrotation
            JOINT RightFoot
            {
                OFFSET -0.000000 -63.982941 0.000000
                CHANNELS 3 Zrotation Xrotation Yrotation
                JOINT RightToeBase
                {
                    OFFSET -0.000000 -11.158641 25.750711
                    CHANNELS 3 Zrotation Xrotation Yrotation
                    End Site
                    {
                        OFFSET -0.000000 0.000000 6.866856
                    }
                }
            }
        }
    }
}
MOTION
Frames:    4
Frame Time:    0.008333
-3.256763    164.611237    -23.283689    2.171266    0.278903    -2.853578    -4.556416    -7.746873    1.619749    4.216003    8.934017    0.316574    1.950081    1.979123    0.616416    -3.572408    -22.563295    -0.803770    -6.675411    -2.657530    -7.253582    35.156651    75.653572    -99.617767    5.681756    -7.353252    -43.389503    -10.000571    -3.834100    -14.482136    -3.956797    4.543877    9.555204    25.840899    62.611874    47.865158    1.117624    -0.673193    46.991009    9.159244    0.728532    23.239922    2.842969    3.309370    -1.002987    -6.201197    1.734087    -1.144830    1.849122    -7.943974    10.332096    0.000000    0.000000    0.000000    -6.137256    -0.832532    -0.586274    10.615310    9.015158    -0.110178    -8.567989    -14.114460    -4.321631    0.000000    0.000000    0.000000    
-3.253030    164.626694    -23.356808    2.079959    0.196385    -2.704755    -4.465158    -7.600040    1.581555    4.178658    8.956755    0.301833    2.009016    2.184915    0.603414    -3.580185    -22.709064    -0.828381    -6.630764    -2.667433    -7.328820    33.233627    75.916573    -97.856781    5.492166    -7.573314    -43.378166    -10.372034    -4.070338    -14.631809    -3.961568    4.494871    9.558201    25.558313    62.550701    48.027706    1.335537    -0.581888    47.041656    8.962955    0.699218    23.429102    2.942108    3.342186    -1.122382    -6.205441    1.746010    -1.134632    1.851114    -7.940268    10.286187    0.000000    0.000000    0.000000    -6.058777    -0.710908    -0.704442    10.632595    8.940157    -0.058953    -8.562914    -13.981889    -4.391851    0.000000    0.000000    0.000000    
-3.259037    164.643433    -23.423323    1.990899    0.119340    -2.599671    -4.382308    -7.473146    1.570444    4.155153    8.976233    0.295699    2.049186    2.419123    0.590320    -3.553650    -22.850580    -0.838000    -6.583484    -2.687276    -7.401906    31.228737    76.151787    -95.995834    5.458494    -7.680645    -43.382690    -10.776052    -4.129592    -14.733471    -3.991638    4.415701    9.584661    25.372511    62.483921    48.137062    1.631269    -0.489864    47.087498    8.705745    0.612848    23.489128    3.038846    3.387633    -1.168715    -6.208818    1.736873    -1.188305    1.860195    -7.929482    10.289872    0.000000    0.000000    0.000000    -5.968595    -0.599514    -0.766302    10.630277    8.848562    -0.109903    -8.526427    -13.854877    -4.341310    0.000000    0.000000    0.000000    
-3.248668    164.664795    -23.499796    1.950958    0.056646    -2.447047    -4.347541    -7.340721    1.523043    4.141225    8.962895    0.278780    2.027012    2.585355    0.568652    -3.458097    -22.856468    -0.822822    -6.554053    -2.712083    -7.433650    29.301216    76.310219    -94.193062    5.500004    -7.665700    -43.402077    -11.071663    -4.051673    -14.802731    -4.031197    4.343423    9.620347    25.190428    62.455769    48.245789    1.943352    -0.511637    47.137154    8.458333    0.409664    23.583916    3.077327    3.397081    -1.290676    -6.194061    1.741932    -1.167971    1.826870    -7.892898    10.237795    0.000000    0.000000    0.000000    -5.940152    -0.501431    -0.853464    10.651580    8.766705    -0.125992    -8.513979    -13.744437    -4.391453    0.000000    0.000000    0.000000    
